<svg xmlns="http://www.w3.org/2000/svg" viewBox="0 0 167.82 127.6" fill="currentColor" class="w-6 h-6">
                <path d="m82.47,80.94l-13.88-13.89c-.85-.85-2.24-.85-3.09,0l-21.07,21.06c-.85.85-.85,2.24,0,3.09l34.24,34.24c2.9,2.89,7.58,2.89,10.48,0l34.54-34.54c.85-.85.85-2.24,0-3.09l-20.95-20.95c-.85-.85-2.24-.85-3.09,0l-14.08,14.08c-.85.85-2.24.85-3.09,0Z" />
                <path d="m165.65,38.46L127.89.7c-.85-.85-2.24-.85-3.09,0l-35.61,35.6c-2.89,2.89-7.58,2.89-10.47,0L43.07.64c-.85-.85-2.24-.85-3.09,0L2.17,38.46c-2.89,2.9-2.89,7.58,0,10.48l34.24,34.24c.85.85,2.24.85,3.09,0l27.45-27.46c.85-.85,2.24-.85,3.09,0h0c.85.85,2.24.85,3.09,0l9.35-9.36c.85-.85,2.24-.85,3.09,0l8.87,8.87c.85.85,2.24.85,3.09,0l.19-.19c.85-.86,2.24-.86,3.09,0l27.83,27.84c.85.85,2.24.85,3.09,0l33.93-33.93c2.89-2.9,2.89-7.58,0-10.48Z" />
            </svg>